<svg id="Layer_1" data-name="Layer 1" xmlns="http://www.w3.org/2000/svg" viewBox="0 0 1000 365.51"><path d="M127,14.74h28.65l-127,336.81H0Z"/><path d="M220.86,14.74H249.5l-127,336.81H93.88Z"/><path d="M321.21,347.36,342.65,310c11.22,7.85,22.88,13.38,38.24,13.38,25.58,0,38.94-14,45.91-48.06l27.36-136.49H375.27L384,97.55H515.26L478.67,279.38c-11.18,55.47-39.76,86.13-94.6,86.13C355.43,365.51,334.4,356.33,321.21,347.36ZM459.51,36.77C459.51,17.14,476.65,0,498.24,0c19.69,0,33.9,10.54,33.9,30.12,0,21-17.41,36.77-39.11,36.77C475.62,66.89,459.51,57,459.51,36.77Z"/><path d="M586.12,210.29C586.12,139.81,641,92.9,703.18,92.9c34.3,0,60.09,17.27,73.92,35.08L744.89,157.3c-12.71-14.24-28.17-21.08-45.58-21.08-29.78,0-59.53,30.12-59.53,69.19,0,31,21.08,45.52,45.87,45.52,19.27,0,33.64-9.33,48.55-21.75l18.71,35.88c-19.19,17.92-44.83,29.19-75,29.19C627.86,294.25,586.12,266.38,586.12,210.29Z"/><path d="M809.84,259,839,225.74c19.87,20.24,43.85,29.08,67.6,29.08,17.94,0,28.92-5.38,28.92-16.12,0-11.21-9.54-15.95-37.82-25-38.82-12.61-59.88-29.88-59.88-59,0-40.76,38-61.81,81.08-61.81,37.4,0,63.27,13.88,81.1,31.42l-28.94,31.15c-15.48-12.71-36.32-23.14-58-23.14-15.45,0-25.42,5.32-25.42,15.82s10.68,15.39,40.31,25.56c34.4,11.61,57.39,26.34,57.39,57.77,0,43.44-38.3,62.77-87.46,62.77C862,294.25,830.55,280.42,809.84,259Z"/></svg>